# xmcd CD database file
#
# Track frame offsets:
#	150
#	71267
#	94850
#	151797
#	167905
#	193037
#	236095
#	260727
#
# Disc length: 3793 seconds
#
# Revision: 0
# Processed by: cddbd v1.5.1PL2 Copyright (c) Steve Scherf et al.
# Submitted via: CDex 1.51
#
DISCID=670ecf08
DTITLE=Evan Parker (with John Russell, John Edwards, Mark Sanders) - London Air Lift
DYEAR=1997
DGENRE=Jazz
TTITLE0=Fly Vision
TTITLE1=London Air Lift
TTITLE2=The Drop
TTITLE3=Neighbouring Instances
TTITLE4=Mayday
TTITLE5=One Thousand Clicks - For John Stevens
TTITLE6=Half and Half
TTITLE7=Rough Diamond - Harry
EXTD=YEAR: 1997
EXTT0=
EXTT1=
EXTT2=
EXTT3=
EXTT4=
EXTT5=
EXTT6=
EXTT7=
PLAYORDER=
